<svg xmlns="http://www.w3.org/2000/svg" width="16" height="16" viewBox="0 0 16 16">
  <path d="M8 0 L10.5 6.5 L16 6.5 L11 10.5 L12.5 16 L8 13 L3.5 16 L5 10.5 L0 6.5 L5.5 6.5 Z" fill="#ff0000" opacity="0.9"/>
  <path d="M8 2 L9.8 7.5 L13.5 7.5 L10.5 10.5 L11.5 14.5 L8 12.5 L4.5 14.5 L5.5 10.5 L2.5 7.5 L6.2 7.5 Z" fill="#ff0000"/>
  <path d="M8 4 L9 8.5 L11.5 8.5 L9.5 10.5 L10 13.5 L8 12 L6 13.5 L6.5 10.5 L4.5 8.5 L7 8.5 Z" fill="#fff"/>
  <path d="M8 5.5 L8.5 8.5 L10 8.5 L9 9.5 L9.2 11 L8 10 L6.8 11 L7 9.5 L6 8.5 L7.5 8.5 Z" fill="#ffd700"/>
  <circle cx="8" cy="8" r="0.8" fill="#ffd700"/>
</svg>
