<svg xmlns="http://www.w3.org/2000/svg" width="16" height="16" viewBox="0 0 16 16">
  <path d="M8 0 L11 7 L16 7 L11.5 11.5 L13 16 L8 14 L3 16 L4.5 11.5 L0 7 L5 7 Z" fill="#cc0000" opacity="1"/>
  <path d="M8 1.5 L10 7.5 L14 7.5 L10.5 11 L11.5 15 L8 13.5 L4.5 15 L5.5 11 L2 7.5 L6 7.5 Z" fill="#ff0000"/>
  <path d="M8 3.5 L9.2 8.5 L12 8.5 L9.8 10.5 L10.3 13.5 L8 12.5 L5.7 13.5 L6.2 10.5 L4 8.5 L6.8 8.5 Z" fill="#fff"/>
  <path d="M8 5 L8.8 9 L10.5 9 L9.2 10.2 L9.5 12 L8 11 L6.5 12 L6.8 10.2 L5.5 9 L7.2 9 Z" fill="#ffd700"/>
  <path d="M8 6.5 L8.4 9 L9.5 9 L8.8 9.8 L9 11 L8 10.5 L7 11 L7.2 9.8 L6.5 9 L7.6 9 Z" fill="#ffd700"/>
  <circle cx="8" cy="8" r="0.6" fill="#ffd700"/>
  <circle cx="8" cy="8" r="0.3" fill="#fff"/>
</svg>
